# xmcd CD database file
#
# Track frame offsets:
#	150
#	27849
#	51318
#	77916
#	89720
#	116591
#	143044
#	174420
#	199668
#	228366
#	246728
#
# Disc length: 3535 seconds
#
# Revision: 0
# Processed by: cddbd v1.5.2PL0 Copyright (c) Steve Scherf et al.
# Submitted via: CDex 1.70beta2
#
DISCID=990dcd0b
DTITLE=I Tamburellisti si Torrepaduli - IL TEMPO DELLA TARANTA Pizzica d'autore
DYEAR=1900
DGENRE=New Age
TTITLE0=Il tempo della taranta (P. De Giorgi)
TTITLE1=Evviva Eva (P. De Giorgi)
TTITLE2=Signora dell'aria (P. De Giorgi - D. De Vitis)
TTITLE3=Il bacio della taranta (assolo di violino, D. De Vitis)
TTITLE4=Briganti te lu Salentu (P. De Giorgi)
TTITLE5=Assolo di tamburello
TTITLE6=Ghineches crasi pizzica (A. Anchora - P. De Giorgi - D. De Vitis)
TTITLE7=La leggenda della bella Lecce (P. De Giorgi)
TTITLE8=Una storia clanderstina (P. De Giorgi)
TTITLE9=Noelia (assolo di fisarmonica, D. Nuzzo - P. De Giorgi)
TTITLE10=Mmamminieddhu zzuccaratu (tradizionale - P. De Giorgi)
EXTD=
EXTT0=
EXTT1=
EXTT2=
EXTT3=
EXTT4=
EXTT5=
EXTT6=
EXTT7=
EXTT8=
EXTT9=
EXTT10=
PLAYORDER=
